<?xml version="1.0" encoding="utf-8"?>
<!-- Generator: Adobe Illustrator 14.0.0, SVG Export Plug-In . SVG Version: 6.00 Build 43363)  -->
<!DOCTYPE svg PUBLIC "-//W3C//DTD SVG 1.1//EN" "http://www.w3.org/Graphics/SVG/1.1/DTD/svg11.dtd" [
	<!ENTITY st0 "fill-rule:evenodd;clip-rule:evenodd;fill:#4BC4F3;">
	<!ENTITY st1 "fill-rule:evenodd;clip-rule:evenodd;fill:#53BB49;">
]>
<svg version="1.1" id="Layer_1" xmlns="http://www.w3.org/2000/svg" xmlns:xlink="http://www.w3.org/1999/xlink" x="0px" y="0px"
	 width="595.28px" height="841.89px" viewBox="0 0 595.28 841.89" style="enable-background:new 0 0 595.28 841.89;"
	 xml:space="preserve">
<g>
	<path style="&st0;" d="M298.999,374.89c15.841,20.842,53.837,83.374,0,91C298.999,435.557,298.999,405.224,298.999,374.89z
		 M301.999,463.89c7.729-1.939,14.47-4.865,18-11C310.763,452.663,304.86,461.071,301.999,463.89z"/>
	<path style="&st1;" d="M289,427.89c1.77,10.23,9.823,14.178,8,28c-4.65-3.684-6.542-10.125-11-14c0.433,11.234,9.294,14.039,11,24
		c-51.984-6.783-9.489-58.79-1-86c2.328,9.672,0.337,23.663,1,35c-2.57-0.097-1.43-3.903-4-4c2.972,7.361,5.023,15.644,4,27
		C293.778,435.112,292.874,430.016,289,427.89z"/>
</g>
</svg>
